<svg width="32" height="32" viewBox="0 0 32 32" fill="none" xmlns="http://www.w3.org/2000/svg">
<path d="M12.263 2.6665L11.4167 6.46598C10.9353 6.69762 10.4751 6.96442 10.0339 7.26546L6.32031 6.09619L2.58334 12.5702L5.39844 15.1483C5.28845 15.9646 5.33827 16.3671 5.39844 16.8514L2.58334 19.4295L6.32031 25.9035L10.0339 24.7342C10.4751 25.0353 10.9353 25.3021 11.4167 25.5337L12.263 29.3332H19.737L20.5833 25.5337C21.0647 25.3021 21.5249 25.0353 21.9661 24.7342L25.6797 25.9035L29.4167 19.4295L26.6016 16.8514C26.6246 16.568 26.6664 16.2844 26.6667 15.9998C26.6677 15.7067 26.6216 15.4106 26.6016 15.1483L29.4167 12.5702L25.6797 6.09619L21.9661 7.26546C21.5249 6.96442 21.0647 6.69762 20.5833 6.46598L19.737 2.6665H12.263ZM14.4036 5.33317H17.5964L18.2552 8.2915L18.9167 8.55192C19.6649 8.84495 20.3643 9.24829 20.9922 9.74984L21.5495 10.1925L24.4401 9.28369L26.0365 12.0493L23.8021 14.0988L23.9089 14.8019C24.0345 15.5795 24.0101 16.4744 23.9089 17.1978L23.8021 17.9009L26.0365 19.9504L24.4401 22.716L21.5495 21.8071L20.9922 22.2498C20.3643 22.7514 19.6649 23.1547 18.9167 23.4478L18.2552 23.7082L17.5964 26.6665H14.4036L13.7448 23.7082L13.0833 23.4478C12.3351 23.1547 11.6357 22.7514 11.0078 22.2498L10.4505 21.8071L7.5599 22.716L5.96354 19.9504L8.19792 17.9009L8.09115 17.1978C7.96092 16.4045 7.98091 15.4966 8.09115 14.8019L8.19792 14.0988L5.96354 12.0493L7.5599 9.28369L10.4505 10.1925L11.0078 9.74984C11.6357 9.24829 12.3351 8.84495 13.0833 8.55192L13.7448 8.2915L14.4036 5.33317ZM16 10.6665C13.0703 10.6665 10.6667 13.0701 10.6667 15.9998C10.6667 18.9296 13.0703 21.3332 16 21.3332C18.9297 21.3332 21.3333 18.9296 21.3333 15.9998C21.3333 13.0701 18.9297 10.6665 16 10.6665ZM16 13.3332C17.4886 13.3332 18.6667 14.5113 18.6667 15.9998C18.6667 17.4884 17.4886 18.6665 16 18.6665C14.5114 18.6665 13.3333 17.4884 13.3333 15.9998C13.3333 14.5113 14.5114 13.3332 16 13.3332Z" fill="#A098AE"/>
</svg>

